# xmcd CD database file
#
# Track frame offsets:
#	150
#	20797
#	35087
#	47085
#	59397
#	74192
#	89004
#	101587
#	116377
#	131120
#
# Disc length: 1961 seconds
#
# Revision: 0
# Processed by: cddbd v1.5.1PL0 Copyright (c) Steve Scherf et al.
# Submitted via: CdAid (MTCDDB.DLL V2003.12.21)
#
DISCID=9a07a70a
DTITLE=Leonardo Paniagua - El Gusto De Pueblo
DYEAR=1997
DGENRE=Latin
TTITLE0=Maria
TTITLE1=Concavo Y Convexo
TTITLE2=Ella Se Llamaba Marta
TTITLE3=Que Dios Te Aleje De Mi
TTITLE4=Perdido
TTITLE5=Te Vas
TTITLE6=Tu Si Abes Amar
TTITLE7=Acuerdate
TTITLE8=Tu Foto En La Pared
TTITLE9=Cuando Tu No Estas
EXTD=ID3G:  86 YEAR: 1997
EXTT0=
EXTT1=
EXTT2=
EXTT3=
EXTT4=
EXTT5=
EXTT6=
EXTT7=
EXTT8=
EXTT9=
PLAYORDER=
